<?xml version="1.0" encoding="UTF-8" standalone="no"?>
<svg
   width="81.253998"
   height="81.253998"
   viewBox="0 0 81.253998 81.253998"
   fill="none"
   version="1.1"
   id="svg8"
   sodipodi:docname="p2pix.svg"
   inkscape:version="1.3 (0e150ed6c4, 2023-07-21)"
   xmlns:inkscape="http://www.inkscape.org/namespaces/inkscape"
   xmlns:sodipodi="http://sodipodi.sourceforge.net/DTD/sodipodi-0.dtd"
   xmlns="http://www.w3.org/2000/svg"
   xmlns:svg="http://www.w3.org/2000/svg">
  <defs
     id="defs8" />
  <sodipodi:namedview
     id="namedview8"
     pagecolor="#ffffff"
     bordercolor="#000000"
     borderopacity="0.25"
     inkscape:showpageshadow="2"
     inkscape:pageopacity="0.0"
     inkscape:pagecheckerboard="0"
     inkscape:deskcolor="#d1d1d1"
     inkscape:zoom="5.0617761"
     inkscape:cx="129.5"
     inkscape:cy="23.805873"
     inkscape:window-width="1920"
     inkscape:window-height="1011"
     inkscape:window-x="0"
     inkscape:window-y="0"
     inkscape:window-maximized="1"
     inkscape:current-layer="svg8" />
  <path
     d="m 21.877862,66.609161 c 0,4.29324 -2.73444,7.334258 -6.49095,7.334258 -2.197613,0 -3.884411,-1.07331 -4.906471,-2.657693 v 8.739769 H 7.5927121 v -20.44393 h 2.8877289 v 2.402197 c 1.02206,-1.609964 2.708858,-2.708857 4.932061,-2.708857 3.67975,0 6.46536,3.041058 6.46536,7.334256 z m -2.91311,0 c 0,-2.683233 -1.73796,-4.574316 -4.19099,-4.574316 -2.453445,0 -4.318904,1.891083 -4.318904,4.574316 0,2.708816 1.865459,4.574317 4.318904,4.574317 2.42745,0 4.19099,-1.865501 4.19099,-4.574317 z"
     fill="#14b8a6"
     id="path1"
     style="stroke-width:0.419393" />
  <path
     d="m 37.722102,70.876818 v 2.759941 h -13.56988 v -2.069955 l 5.18789,-4.548777 c 4.01191,-3.501007 5.03397,-4.395445 5.03397,-5.979827 0,-1.558841 -1.20114,-2.836605 -3.39876,-2.836605 -2.17203,0 -3.37317,1.252181 -3.7565,3.296595 h -2.9131 c 0.40891,-3.731044 3.09218,-6.056523 6.79752,-6.056523 3.80767,0 6.18437,2.453268 6.18437,5.468744 0,2.708816 -1.89105,4.31878 -5.54564,7.513127 l -2.81077,2.427739 -0.0512,0.02554 z"
     fill="#f59e0b"
     id="path2"
     style="stroke-width:0.419393" />
  <path
     d="m 54.869392,66.609161 c 0,4.29324 -2.73444,7.334258 -6.49094,7.334258 -2.19804,0 -3.88442,-1.07331 -4.9069,-2.657693 v 8.739769 h -2.88752 v -20.44393 h 2.88752 v 2.402197 c 1.02248,-1.609964 2.70886,-2.708857 4.93248,-2.708857 3.67975,0 6.46536,3.041058 6.46536,7.334256 z m -2.91352,0 c 0,-2.683233 -1.73755,-4.574316 -4.19099,-4.574316 -2.45303,0 -4.31849,1.891083 -4.31849,4.574316 0,2.708816 1.86546,4.574317 4.31849,4.574317 2.42786,0 4.19099,-1.865501 4.19099,-4.574317 z"
     fill="#14b8a6"
     id="path3"
     style="stroke-width:0.419393" />
  <path
     d="m 61.104502,55.007239 c 0,1.047748 -0.79223,1.814394 -1.89104,1.814394 -1.04764,0 -1.86546,-0.766646 -1.86546,-1.814394 0,-1.022194 0.81782,-1.763286 1.86546,-1.763286 1.09881,0 1.89104,0.741092 1.89104,1.763286 z m -3.32201,4.574326 h 2.88752 v 14.055194 h -2.88752 z"
     fill="#14b8a6"
     id="path4"
     style="stroke-width:0.419393" />
  <path
     d="m 73.089912,73.636759 -3.39876,-5.034308 -3.27126,5.034308 h -3.47551 l 5.03439,-7.23201 -4.75298,-6.823143 h 3.44992 l 3.11735,4.702064 3.01585,-4.702064 h 3.47509 l -4.75297,6.874225 5.0088,7.180928 z"
     fill="#14b8a6"
     id="path5"
     style="stroke-width:0.419393" />
  <path
     d="m 8.11425,0 c 3.66615,0 6.76355,2.43731 7.76895,5.77851 3.8591,0.2742 7.5557,1.9498 10.2875,4.702 l 14.7458,14.7356 c 0.0508,0.0508 0.1117,0.1016 0.1625,0.1625 l 16.1676,16.1574 c 1.9702,1.9803 4.6918,3.1076 7.4744,3.1076 0.0102,0 0.0203,0 0.0305,0 h 0.8937 c 1.2187,-2.9349 4.113,-4.9965 7.4948,-4.9965 4.4785,0 8.1142,3.6357 8.1142,8.1142 0,4.4786 -3.6357,8.1143 -8.1142,8.1143 -3.6154,0 -6.6621,-2.3561 -7.7182,-5.6262 h -0.6601 c -0.0102,0 -0.0305,0 -0.0407,0 -4.2551,0 -8.4189,-1.7264 -11.4147,-4.7426 L 38.4995,30.70011 c -0.0609,-0.0508 -0.132,-0.1016 -0.1929,-0.1625 L 22.1898,14.42081 c -1.7671,-1.7772 -4.1536,-2.8638 -6.6519,-3.067 -1.2491,2.8639 -4.1028,4.8645 -7.43381,4.8645 C 3.63567,16.21831 0,12.59281 0,8.11421 0,3.63571 3.63567,0 8.11425,0 Z"
     fill="#f59e0b"
     id="path6" />
  <path
     d="m 8.11425,39.64711 c 3.38175,0 6.26595,2.0616 7.49475,4.9965 h 0.8937 c 0.0102,0 0.0203,0 0.0305,0 2.7927,0 5.5144,-1.1272 7.4744,-3.1075 l 9.6477,-9.6478 3.9505,3.9505 -9.6578,9.6579 c -3.0061,3.0162 -7.1597,4.7426 -11.4148,4.7426 -0.0102,0 -0.0305,0 -0.0407,0 h -0.6601 c -1.046,3.2599 -4.1028,5.6262 -7.71815,5.6262 C 3.63567,55.86551 0,52.22981 0,47.75121 c 0,-4.4786 3.63567,-8.1041 8.11425,-8.1041 z"
     fill="#f59e0b"
     id="path7" />
  <path
     d="m 73.1298,16.21831 c -3.3818,0 -6.266,-2.0615 -7.4948,-4.9965 h -0.8937 c -0.0101,0 -0.0203,0 -0.0304,0 -2.7928,0 -5.5145,1.1273 -7.4745,3.1076 l -9.6477,9.6478 -3.9505,-3.9505 9.6579,-9.6579 c 3.006,-3.0162 7.1596,-4.7426 11.4148,-4.7426 0.0101,0 0.0304,0 0.0406,0 h 0.6601 c 1.0562,-3.2701 4.113,-5.6262 7.7182,-5.6262 4.4786,0 8.1142,3.6357 8.1142,8.1143 0,4.4785 -3.6356,8.104 -8.1142,8.104 z"
     fill="#f59e0b"
     id="path8" />
</svg>
