<?xml version="1.0" encoding="UTF-8" standalone="no"?>
<!DOCTYPE svg PUBLIC "-//W3C//DTD SVG 1.1//EN" "http://www.w3.org/Graphics/SVG/1.1/DTD/svg11.dtd">
<svg width="100%" height="100%" viewBox="0 0 20 20" version="1.1" xmlns="http://www.w3.org/2000/svg" xmlns:xlink="http://www.w3.org/1999/xlink" xml:space="preserve" xmlns:serif="http://www.serif.com/" style="fill-rule:evenodd;clip-rule:evenodd;stroke-linejoin:round;stroke-miterlimit:2;">
    <g transform="matrix(1.41819,0,0,1.41819,0.0724699,0.290651)">
        <path d="M7,0.333C3.318,0.333 0.333,3.323 0.333,7.012C0.333,9.961 2.244,12.465 4.893,13.348C5.226,13.409 5.348,13.203 5.348,13.025C5.348,12.868 5.342,12.447 5.339,11.89C3.484,12.294 3.093,10.995 3.093,10.995C2.79,10.223 2.353,10.018 2.353,10.018C1.748,9.604 2.399,9.612 2.399,9.612C3.068,9.659 3.42,10.3 3.42,10.3C4.014,11.32 4.98,11.025 5.36,10.855C5.421,10.424 5.593,10.13 5.784,9.963C4.304,9.794 2.747,9.221 2.747,6.662C2.747,5.934 3.007,5.337 3.433,4.87C3.364,4.702 3.136,4.022 3.498,3.104C3.498,3.104 4.058,2.924 5.332,3.788C5.875,3.639 6.436,3.564 7,3.563C7.567,3.566 8.137,3.64 8.67,3.788C9.942,2.924 10.501,3.103 10.501,3.103C10.865,4.022 10.636,4.702 10.568,4.87C10.994,5.337 11.253,5.934 11.253,6.662C11.253,9.227 9.694,9.792 8.209,9.958C8.448,10.164 8.661,10.571 8.661,11.194C8.661,12.086 8.653,12.807 8.653,13.025C8.653,13.204 8.773,13.412 9.112,13.347C10.439,12.902 11.593,12.05 12.411,10.914C13.228,9.777 13.667,8.412 13.667,7.012C13.667,3.323 10.682,0.333 7,0.333Z" style="fill:rgb(31,41,55);"/>
    </g>
</svg>
