<?xml version="1.0" encoding="UTF-8" standalone="no"?>
<!DOCTYPE svg PUBLIC "-//W3C//DTD SVG 1.1//EN" "http://www.w3.org/Graphics/SVG/1.1/DTD/svg11.dtd">
<svg width="100%" height="100%" viewBox="0 0 20 20" version="1.1" xmlns="http://www.w3.org/2000/svg" xmlns:xlink="http://www.w3.org/1999/xlink" xml:space="preserve" xmlns:serif="http://www.serif.com/" style="fill-rule:evenodd;clip-rule:evenodd;stroke-linejoin:round;stroke-miterlimit:2;">
    <g transform="matrix(1.44084,0,0,1.44084,-0.0860978,1.23349)">
        <path d="M4.527,11.502C9.558,11.502 12.31,7.333 12.31,3.719C12.31,3.6 12.31,3.482 12.302,3.365C12.838,2.978 13.3,2.498 13.667,1.948C13.168,2.169 12.638,2.315 12.096,2.379C12.667,2.037 13.094,1.499 13.298,0.865C12.761,1.184 12.174,1.409 11.562,1.529C11.149,1.091 10.604,0.8 10.009,0.703C9.415,0.605 8.805,0.706 8.274,0.991C7.743,1.275 7.321,1.726 7.072,2.275C6.824,2.823 6.763,3.438 6.9,4.025C5.812,3.97 4.748,3.688 3.777,3.195C2.805,2.703 1.948,2.012 1.262,1.167C0.912,1.769 0.805,2.482 0.962,3.16C1.119,3.838 1.529,4.431 2.108,4.818C1.673,4.806 1.247,4.688 0.867,4.477L0.867,4.511C0.867,5.143 1.086,5.755 1.486,6.244C1.886,6.732 2.442,7.068 3.062,7.193C2.659,7.303 2.236,7.319 1.826,7.239C2.001,7.783 2.341,8.259 2.8,8.599C3.258,8.94 3.811,9.129 4.382,9.139C3.815,9.585 3.165,9.915 2.471,10.109C1.776,10.304 1.05,10.359 0.333,10.273C1.585,11.076 3.04,11.502 4.527,11.499" style="fill:rgb(31,41,55);fill-rule:nonzero;"/>
    </g>
</svg>
